<svg xmlns="http://www.w3.org/2000/svg" width="1200" height="720" viewBox="0 0 1200 720">
  <rect width="1200" height="720" fill="#f8fafc"/>
  <text x="60" y="55" font-family="Arial" font-size="30" font-weight="700" fill="#0f172a">Azure Enterprise Infrastructure Architecture</text>
  <rect x="55" y="90" width="1090" height="560" rx="22" fill="#ffffff" stroke="#cbd5e1" stroke-width="2"/>
  <rect x="95" y="140" width="220" height="70" rx="14" fill="#e0f2fe" stroke="#0369a1"/>
  <text x="130" y="182" font-family="Arial" font-size="18" font-weight="700" fill="#075985">Business User</text>
  <rect x="455" y="140" width="260" height="70" rx="14" fill="#dbeafe" stroke="#1d4ed8"/>
  <text x="510" y="182" font-family="Arial" font-size="18" font-weight="700" fill="#1e3a8a">Azure App Service</text>
  <rect x="830" y="120" width="245" height="70" rx="14" fill="#fef3c7" stroke="#d97706"/>
  <text x="900" y="162" font-family="Arial" font-size="18" font-weight="700" fill="#92400e">Key Vault</text>
  <rect x="830" y="220" width="245" height="70" rx="14" fill="#dcfce7" stroke="#16a34a"/>
  <text x="875" y="262" font-family="Arial" font-size="18" font-weight="700" fill="#166534">Private Blob Storage</text>
  <rect x="415" y="260" width="340" height="165" rx="18" fill="#f1f5f9" stroke="#64748b"/>
  <text x="500" y="294" font-family="Arial" font-size="18" font-weight="700" fill="#334155">Virtual Network</text>
  <rect x="455" y="320" width="260" height="70" rx="14" fill="#ede9fe" stroke="#7c3aed"/>
  <text x="490" y="362" font-family="Arial" font-size="18" font-weight="700" fill="#4c1d95">Subnet + NSG Controls</text>
  <rect x="455" y="485" width="260" height="70" rx="14" fill="#fee2e2" stroke="#dc2626"/>
  <text x="498" y="527" font-family="Arial" font-size="18" font-weight="700" fill="#991b1b">Application Insights</text>
  <rect x="830" y="440" width="245" height="70" rx="14" fill="#f3e8ff" stroke="#9333ea"/>
  <text x="860" y="482" font-family="Arial" font-size="18" font-weight="700" fill="#581c87">Log Analytics Workspace</text>
  <rect x="830" y="545" width="245" height="70" rx="14" fill="#ffedd5" stroke="#ea580c"/>
  <text x="878" y="587" font-family="Arial" font-size="18" font-weight="700" fill="#9a3412">Azure Monitor Alert</text>
  <line x1="315" y1="175" x2="455" y2="175" stroke="#334155" stroke-width="3" marker-end="url(#arrow)"/>
  <line x1="715" y1="175" x2="830" y2="155" stroke="#334155" stroke-width="3" marker-end="url(#arrow)"/>
  <line x1="715" y1="190" x2="830" y2="250" stroke="#334155" stroke-width="3" marker-end="url(#arrow)"/>
  <line x1="585" y1="210" x2="585" y2="320" stroke="#334155" stroke-width="3" marker-end="url(#arrow)"/>
  <line x1="585" y1="390" x2="585" y2="485" stroke="#334155" stroke-width="3" marker-end="url(#arrow)"/>
  <line x1="715" y1="520" x2="830" y2="475" stroke="#334155" stroke-width="3" marker-end="url(#arrow)"/>
  <line x1="952" y1="510" x2="952" y2="545" stroke="#334155" stroke-width="3" marker-end="url(#arrow)"/>
  <defs><marker id="arrow" markerWidth="10" markerHeight="10" refX="9" refY="3" orient="auto" markerUnits="strokeWidth"><path d="M0,0 L0,6 L9,3 z" fill="#334155"/></marker></defs>
</svg>
